<svg xmlns="http://www.w3.org/2000/svg" id="SvgjsSvg483655" width="4096" height="1283.2794404280858" version="1.1" xmlns:xlink="http://www.w3.org/1999/xlink" xmlns:svgjs="http://svgjs.com/svgjs"><defs id="SvgjsDefs483656"></defs><rect id="SvgjsRect483657" width="4096" height="1283.2794404280858" fill="#ffffff"></rect><g id="SvgjsG483658" transform="translate(328, 328) scale(34.4)" opacity="1"><defs id="SvgjsDefs119371"></defs><g id="SvgjsG119372" transform="scale(0.21645021645021645)" opacity="1"><g id="SvgjsG119373" class="iQwlFJxtP" transform="translate(-12.95926031572439, -7.355389579014921) scale(0.9895586679691809)" light-content="false" non-strokable="false" fill="#10a254"><circle cx="78.957" cy="41.429" r="6.847"></circle><path d="M86.904 56.242v8.641c0 1.99-.949 3.794-2.476 5.055v11.059c0 2.638-2.452 4.766-5.472 4.766-1.504 0-2.88-.532-3.864-1.4-.995-.856-1.608-2.048-1.608-3.366V69.938c-.046-.035-.104-.069-.15-.116-1.434-1.261-2.325-3.019-2.325-4.94v-8.641c0-3.864 3.551-6.987 7.947-6.987 2.198 0 4.188.775 5.622 2.047 1.435 1.262 2.326 3.009 2.326 4.941z"></path><circle cx="61.057" cy="27.895" r="6.847"></circle><path d="M69.004 42.708v8.641c0 1.99-.949 3.794-2.476 5.055v11.059c0 2.638-2.452 4.766-5.472 4.766-1.504 0-2.88-.532-3.864-1.4-.995-.856-1.608-2.048-1.608-3.366V56.404c-.046-.035-.104-.069-.15-.116-1.434-1.261-2.325-3.019-2.325-4.94v-8.641c0-3.864 3.551-6.987 7.947-6.987 2.198 0 4.188.775 5.622 2.047 1.436 1.262 2.326 3.009 2.326 4.941z"></path><circle cx="43.048" cy="14.28" r="6.847"></circle><path d="M50.996 29.093v8.641c0 1.99-.949 3.794-2.476 5.055v11.059c0 2.638-2.452 4.766-5.472 4.766-1.504 0-2.88-.532-3.864-1.4-.995-.856-1.608-2.048-1.608-3.366V42.79c-.046-.035-.104-.069-.15-.116-1.434-1.261-2.325-3.019-2.325-4.94v-8.641c0-3.864 3.551-6.987 7.947-6.987 2.198 0 4.188.775 5.622 2.047 1.435 1.262 2.326 3.008 2.326 4.94z"></path><path d="M32.266 49.538l-3.113 4.133L74.961 88.17l-3.312 4.397-45.807-34.499-3.109 4.127-9.637-17.172z"></path></g><g id="SvgjsG119374" class="text" transform="translate(286.67053878822765, 57.89639060559824) scale(1)" light-content="false" fill="#2e2e2e"><path d="M-175.1 -19.03L-175.1 0L-166.08 0L-166.08 -5.34C-166.08 -6.72 -165.64 -7.85 -164.75 -8.72C-163.86 -9.59 -162.72 -10.02 -161.34 -10.02L-156.24 -10.02L-156.24 -16.9L-160.86 -16.9C-162.01 -16.9 -163.05 -16.69 -163.98 -16.28C-164.91 -15.86 -165.61 -15.3 -166.08 -14.59L-166.08 -19.09C-166.08 -21.27 -165.46 -22.9 -164.22 -23.98C-162.97 -25.07 -161.16 -25.62 -158.79 -25.62C-156.46 -25.62 -154.67 -25.07 -153.42 -23.98C-152.18 -22.9 -151.56 -21.27 -151.56 -19.09L-151.56 0L-142.54 0L-142.54 -19.03C-142.54 -23.42 -144.01 -26.78 -146.93 -29.11C-149.86 -31.45 -153.81 -32.61 -158.79 -32.61C-163.77 -32.61 -167.73 -31.45 -170.68 -29.11C-173.62 -26.78 -175.1 -23.42 -175.1 -19.03Z M-170.06 -41.33L-170.06 -35.64L-142.6 -35.64L-142.6 -41.33Z M-137.56 -1.66C-134.8 0.04 -130.78 0.89 -125.53 0.89C-119.99 0.89 -115.65 -0.57 -112.51 -3.5C-109.37 -6.42 -107.8 -10.53 -107.8 -15.83C-107.8 -21.13 -109.37 -25.25 -112.51 -28.19C-115.65 -31.14 -119.99 -32.61 -125.53 -32.61C-127.9 -32.61 -130.11 -32.39 -132.17 -31.96C-134.22 -31.52 -135.94 -30.87 -137.33 -30L-137.33 -23.01C-134.87 -24.75 -131.59 -25.62 -127.48 -25.62C-124.16 -25.62 -121.59 -24.8 -119.77 -23.18C-117.96 -21.56 -117.05 -19.11 -117.05 -15.83C-117.05 -12.55 -117.96 -10.11 -119.77 -8.51C-121.59 -6.91 -124.16 -6.11 -127.48 -6.11C-131.75 -6.11 -135.11 -6.96 -137.56 -8.66Z M-104.59 -31.72L-95.76 0L-88.11 0L-82.42 -19.74L-76.73 0L-69.08 0L-60.24 -31.72L-69.26 -31.72L-73.7 -12.33L-79.16 -31.72L-85.68 -31.72L-91.14 -12.33L-95.58 -31.72Z M-51.08 0.21C-48.69 0.66 -46.33 0.89 -44 0.89C-39.33 0.89 -35.82 0.06 -33.47 -1.6C-31.12 -3.26 -29.94 -5.46 -29.94 -8.18C-29.94 -9.88 -30.22 -11.33 -30.77 -12.51C-31.33 -13.7 -32.31 -14.76 -33.71 -15.71C-35.11 -16.66 -37.06 -17.53 -39.55 -18.32L-41.68 -18.97C-44.02 -19.69 -45.64 -20.3 -46.55 -20.81C-47.46 -21.33 -47.91 -22.06 -47.91 -23.01C-47.91 -24.94 -45.99 -25.91 -42.16 -25.91C-40.34 -25.91 -38.49 -25.64 -36.61 -25.11C-34.74 -24.58 -33.17 -23.88 -31.9 -23.01L-31.9 -30.06C-33.17 -30.81 -34.85 -31.43 -36.94 -31.9C-39.04 -32.37 -41.21 -32.61 -43.46 -32.61C-47.61 -32.61 -50.91 -31.77 -53.36 -30.09C-55.82 -28.41 -57.04 -26.05 -57.04 -23.01C-57.04 -20.4 -56.23 -18.34 -54.61 -16.84C-52.99 -15.34 -50.48 -14.05 -47.08 -12.99L-45.6 -12.51C-43.07 -11.72 -41.34 -11.07 -40.41 -10.55C-39.48 -10.04 -39.02 -9.31 -39.02 -8.36C-39.02 -7.29 -39.5 -6.55 -40.47 -6.14C-41.44 -5.72 -42.97 -5.51 -45.06 -5.51C-46.8 -5.51 -48.75 -5.79 -50.9 -6.34C-53.06 -6.9 -55.01 -7.69 -56.74 -8.72L-56.74 -1.84C-55.36 -0.93 -53.47 -0.25 -51.08 0.21Z M-45.66 -39.43L-45.66 -35.64L-27.99 -35.64L-27.99 -41.39L-39.9 -41.39L-39.9 -43.17C-39.9 -44.19 -40.23 -45.04 -40.88 -45.72C-41.54 -46.39 -42.59 -46.72 -44.06 -46.72L-49.63 -46.72L-49.63 -40.62L-46.84 -40.62C-46.41 -40.62 -46.1 -40.53 -45.92 -40.35C-45.75 -40.17 -45.66 -39.87 -45.66 -39.43Z M-19.74 0.09C-17.18 0.62 -14.57 0.89 -11.92 0.89C-5.95 0.89 -1.34 -0.61 1.9 -3.62C5.14 -6.62 6.76 -10.73 6.76 -15.95C6.76 -21.25 5.11 -25.35 1.81 -28.25C-1.49 -31.16 -6.32 -32.61 -12.69 -32.61C-15.18 -32.61 -17.57 -32.4 -19.86 -31.99C-22.16 -31.57 -24.11 -30.99 -25.73 -30.24L-25.73 -23.24C-24.31 -23.99 -22.56 -24.58 -20.49 -24.99C-18.41 -25.41 -16.38 -25.62 -14.41 -25.62C-10.1 -25.62 -7.04 -24.84 -5.22 -23.3C-3.4 -21.76 -2.49 -19.31 -2.49 -15.95C-2.49 -9.39 -5.63 -6.11 -11.92 -6.11C-14.29 -6.11 -16.09 -6.44 -17.31 -7.12L-17.31 -12.21L-11.15 -12.21L-11.15 -18.8L-26.15 -18.8L-26.15 -2.13C-24.45 -1.19 -22.31 -0.44 -19.74 0.09Z M25.2 -0.24C27.06 0.51 28.98 0.89 30.95 0.89C33.56 0.89 35.79 0.36 37.65 -0.71C39.51 -1.78 40.91 -3.24 41.86 -5.1C42.81 -6.96 43.28 -9.03 43.28 -11.33L43.28 -31.72L34.33 -31.72L34.33 -11.86C34.33 -8.02 32.3 -6.11 28.22 -6.11C26.56 -6.11 25.12 -6.45 23.9 -7.14C22.67 -7.84 21.62 -8.91 20.75 -10.38L20.75 -31.72L11.74 -31.72L11.74 0L20.34 0L20.34 -3.56C21.72 -2.1 23.34 -0.99 25.2 -0.24Z M49.3 -0.95C49.96 -0.32 50.76 0 51.7 0C52.65 0 53.46 -0.32 54.14 -0.95C54.81 -1.58 55.14 -2.37 55.14 -3.32C55.14 -4.27 54.81 -5.08 54.14 -5.75C53.46 -6.42 52.65 -6.76 51.7 -6.76C50.8 -6.76 50 -6.42 49.33 -5.75C48.66 -5.08 48.32 -4.27 48.32 -3.32C48.32 -2.37 48.65 -1.58 49.3 -0.95Z M63.5 -3.05C66.55 -0.42 70.64 0.89 75.78 0.89C80.56 0.89 84.42 -0.02 87.34 -1.84L87.34 -8.83C84.42 -6.98 81.04 -6.05 77.2 -6.05C74.43 -6.05 72.23 -6.71 70.59 -8.03C68.95 -9.36 68.13 -11.4 68.13 -14.17C68.13 -16.94 68.96 -18.99 70.62 -20.34C72.28 -21.68 74.49 -22.35 77.26 -22.35C79.12 -22.35 80.89 -22.14 82.57 -21.7C84.25 -21.27 85.72 -20.59 86.98 -19.69L86.98 -26.74C84.22 -28.48 80.5 -29.35 75.84 -29.35C70.7 -29.35 66.6 -28.02 63.53 -25.35C60.47 -22.68 58.94 -18.95 58.94 -14.17C58.94 -9.39 60.46 -5.68 63.5 -3.05Z M98.34 -0.98C100.93 0.27 103.94 0.89 107.38 0.89C110.82 0.89 113.82 0.27 116.39 -0.98C118.96 -2.22 120.95 -3.98 122.35 -6.26C123.76 -8.53 124.46 -11.19 124.46 -14.23C124.46 -17.2 123.76 -19.82 122.35 -22.12C120.95 -24.41 118.95 -26.19 116.36 -27.45C113.78 -28.72 110.78 -29.35 107.38 -29.35C103.94 -29.35 100.93 -28.72 98.34 -27.45C95.75 -26.19 93.75 -24.41 92.35 -22.12C90.95 -19.82 90.25 -17.2 90.25 -14.23C90.25 -11.19 90.95 -8.53 92.35 -6.26C93.75 -3.98 95.75 -2.22 98.34 -0.98ZM113.13 -8.33C111.71 -6.85 109.79 -6.11 107.38 -6.11C104.97 -6.11 103.04 -6.85 101.6 -8.33C100.16 -9.81 99.44 -11.78 99.44 -14.23C99.44 -16.76 100.15 -18.75 101.57 -20.19C102.99 -21.63 104.93 -22.35 107.38 -22.35C109.83 -22.35 111.76 -21.63 113.16 -20.19C114.57 -18.75 115.27 -16.76 115.27 -14.23C115.27 -11.78 114.56 -9.81 113.13 -8.33Z M129.5 -28.46L129.5 0L138.16 0L138.16 -18.38C139.97 -21.03 142.05 -22.35 144.38 -22.35C145.88 -22.35 146.94 -21.99 147.55 -21.26C148.17 -20.53 148.47 -19.29 148.47 -17.55L148.47 0L157.07 0L157.07 -16.66C157.07 -17.45 157.03 -18.48 156.95 -19.74C158.3 -21.48 160.07 -22.35 162.29 -22.35C163.87 -22.35 165.02 -21.96 165.73 -21.17C166.44 -20.38 166.79 -19.07 166.79 -17.25L166.79 0L175.33 0L175.33 -18.5C175.33 -22.02 174.55 -24.71 172.99 -26.56C171.43 -28.42 168.83 -29.35 165.19 -29.35C163.45 -29.35 161.7 -28.99 159.95 -28.28C158.19 -27.57 156.69 -26.56 155.47 -25.26C154.72 -26.6 153.69 -27.62 152.39 -28.31C151.08 -29 149.34 -29.35 147.17 -29.35C145.43 -29.35 143.75 -28.98 142.13 -28.22C140.51 -27.47 139.08 -26.41 137.86 -25.02L137.86 -28.46Z"></path></g></g></g></svg>